<svg width="20" height="20" viewBox="0 0 20 20" fill="none" xmlns="http://www.w3.org/2000/svg">
<path fill-rule="evenodd" clip-rule="evenodd" d="M3.6723 2.25809C5.39641 0.846953 7.5999 0 10 0C15.52 0 20 4.48 20 10C20 12.4001 19.153 14.6036 17.7419 16.3277L17.7782 16.364L16.364 17.7782L16.3277 17.7419C14.6036 19.153 12.4001 20 10 20C4.48 20 0 15.52 0 10C0 7.5999 0.846953 5.39641 2.25809 3.6723L2.22183 3.63604L3.63604 2.22183L3.6723 2.25809ZM3.67953 5.09374C2.62674 6.4483 2 8.15062 2 10C2 11.85 2.63 13.55 3.69 14.9L8.58789 10.0021L3.67953 5.09374ZM10.0021 8.58789L5.09374 3.67953C6.4483 2.62674 8.15062 2 10 2C11.85 2 13.55 2.63 14.9 3.69L10.0021 8.58789ZM9.99789 11.4121L5.1 16.31C6.45 17.37 8.15 18 10 18C11.8494 18 13.5517 17.3733 14.9063 16.3205L9.99789 11.4121ZM16.3205 14.9063L11.4121 9.99789L16.31 5.1C17.37 6.45 18 8.15 18 10C18 11.8494 17.3733 13.5517 16.3205 14.9063Z" fill="#FF003C"/>
</svg>
