<svg width="18" height="18" viewBox="0 0 18 18" fill="none" xmlns="http://www.w3.org/2000/svg">
<path fill-rule="evenodd" clip-rule="evenodd" d="M10.6554 11.6944L8.08424 14.7586C7.02364 16.0226 5.12171 16.189 3.85774 15.1284C2.59377 14.0678 2.42737 12.1659 3.48797 10.9019L6.05912 7.83771L4.52703 6.55213L1.95588 9.61631C0.181788 11.7306 0.457883 14.8864 2.57217 16.6605C4.68645 18.4346 7.84223 18.1585 9.61633 16.0442L12.1875 12.98L10.6554 11.6944ZM8.38376 1.95587L5.81261 5.02004L7.3447 6.30562L9.91585 3.24144C10.9764 1.97747 12.8784 1.81107 14.1423 2.87167C15.4063 3.93227 15.5727 5.83419 14.5121 7.09817L11.941 10.1623L13.4731 11.4479L16.0442 8.38374C17.8183 6.26946 17.5422 3.11368 15.4279 1.33958C13.3136 -0.434511 10.1579 -0.158416 8.38376 1.95587ZM10.8051 5.29306L5.66285 11.4214L7.19494 12.707L12.3372 6.57864L10.8051 5.29306Z" fill="#222222"/>
</svg>
